<?xml version="1.0" standalone="no"?>
<!DOCTYPE svg PUBLIC "-//W3C//DTD SVG 20010904//EN"
 "http://www.w3.org/TR/2001/REC-SVG-20010904/DTD/svg10.dtd">
<svg version="1.0" xmlns="http://www.w3.org/2000/svg"
 width="500.000000pt" height="500.000000pt" viewBox="0 0 500.000000 500.000000"
 preserveAspectRatio="xMidYMid meet">

<g transform="translate(0.000000,500.000000) scale(0.100000,-0.100000)"
fill="#000000" stroke="none">
<path d="M2214 4410 c-296 -67 -536 -201 -745 -416 -149 -155 -248 -318 -323
-532 -56 -161 -66 -228 -66 -436 0 -228 11 -309 60 -457 174 -525 608 -891
1155 -975 133 -21 384 -13 506 15 275 63 511 192 704 386 170 170 280 348 354
570 49 149 61 233 61 440 0 206 -12 291 -60 436 -74 225 -176 393 -337 560
-206 212 -456 351 -743 409 -134 27 -445 27 -566 0z m601 -535 c170 -99 152
-345 -30 -421 -197 -82 -395 132 -299 324 61 123 211 167 329 97z m-852 -301
c82 -42 129 -133 108 -211 -50 -182 -284 -207 -362 -38 -58 124 32 265 168
265 30 0 68 -7 86 -16z"/>
<path d="M2624 3816 c-10 -26 1 -51 22 -54 27 -4 47 21 39 48 -7 24 -53 28
-61 6z"/>
<path d="M2754 3766 c-10 -26 1 -51 22 -54 27 -4 47 21 39 48 -7 24 -53 28
-61 6z"/>
<path d="M2556 3704 c-19 -18 -19 -20 -6 -45 17 -31 70 -18 70 17 0 14 -27 44
-40 44 -5 0 -16 -7 -24 -16z"/>
<path d="M2774 3642 c-20 -13 -23 -41 -7 -57 19 -19 42 -16 57 8 19 30 -20 70
-50 49z"/>
<path d="M2632 3588 c-30 -30 3 -77 40 -57 22 12 24 55 2 63 -22 8 -28 8 -42
-6z"/>
<path d="M1824 3515 c-8 -21 2 -45 19 -45 21 0 38 25 31 44 -8 20 -43 21 -50
1z"/>
<path d="M1925 3480 c-12 -20 6 -51 28 -48 31 4 31 52 0 56 -11 2 -24 -2 -28
-8z"/>
<path d="M1772 3431 c-21 -13 -10 -46 16 -49 27 -4 40 22 22 43 -14 17 -20 18
-38 6z"/>
<path d="M1934 3365 c-9 -23 3 -45 25 -45 20 0 37 32 26 50 -9 15 -45 12 -51
-5z"/>
<path d="M1824 3325 c-8 -21 2 -45 19 -45 20 0 40 27 33 45 -7 19 -45 20 -52
0z"/>
<path d="M1337 1427 c-19 -15 -170 -424 -162 -437 3 -6 26 -10 49 -10 43 0 43
0 52 43 l9 42 90 0 90 0 9 -42 c9 -43 9 -43 52 -43 23 0 46 5 49 10 6 9 -140
416 -154 431 -13 14 -69 17 -84 6z m72 -186 c30 -91 30 -91 -34 -91 -39 0 -55
4 -55 13 0 12 23 85 45 146 8 22 20 3 44 -68z"/>
<path d="M1630 1210 l0 -230 50 0 50 0 -5 153 c-6 176 -6 176 67 -31 l43 -123
34 3 35 3 49 138 c28 75 55 137 60 137 6 0 7 -50 3 -140 l-7 -140 50 0 51 0 0
230 0 230 -64 0 c-61 0 -64 -1 -70 -26 -14 -54 -100 -284 -107 -284 -3 0 -31
69 -61 153 l-55 152 -62 3 -61 3 0 -231z"/>
<path d="M2190 1211 l0 -231 50 0 50 0 0 79 0 78 69 6 c127 10 175 48 175 136
0 60 -29 111 -74 133 -23 11 -76 19 -152 23 l-118 7 0 -231z m235 124 c53 -52
13 -125 -69 -125 -24 0 -51 -3 -60 -6 -14 -5 -16 5 -16 75 l0 81 60 0 c51 0
65 -4 85 -25z"/>
<path d="M2731 1421 c-14 -24 -161 -422 -161 -433 0 -4 22 -8 49 -8 l48 0 13
45 13 45 82 0 83 0 16 -40 c15 -38 18 -40 61 -40 25 0 45 4 45 10 0 14 -150
414 -158 421 -4 4 -24 10 -44 13 -30 6 -39 3 -47 -13z m78 -180 c30 -91 30
-91 -34 -91 -30 0 -55 3 -55 7 0 24 53 163 60 156 4 -4 17 -37 29 -72z"/>
<path d="M3030 1211 l0 -231 50 0 50 0 0 81 0 80 37 -3 c36 -3 39 -7 78 -80
l40 -78 42 0 c23 0 45 4 48 10 3 5 -13 45 -37 89 l-43 79 35 44 c31 37 35 50
34 95 -2 62 -30 107 -77 122 -17 5 -83 13 -144 17 l-113 7 0 -232z m225 124
c14 -13 25 -33 25 -45 0 -11 -11 -32 -25 -45 -19 -20 -34 -25 -75 -25 l-50 0
0 70 0 70 50 0 c41 0 56 -5 75 -25z"/>
<path d="M3575 1431 c-88 -15 -135 -82 -143 -206 -7 -115 29 -195 105 -234 30
-15 127 -14 167 3 38 16 78 64 95 115 17 53 13 170 -8 216 -24 53 -83 105
-121 105 -15 0 -34 2 -42 4 -7 2 -31 0 -53 -3z m103 -93 c30 -33 42 -71 42
-133 0 -94 -38 -155 -95 -155 -65 0 -105 63 -105 164 0 57 20 108 51 130 34
23 81 20 107 -6z"/>
<path d="M3132 783 c-5 -16 -13 -36 -17 -45 -6 -15 -1 -18 28 -18 l36 0 -16
45 c-8 25 -16 45 -18 45 -2 0 -8 -12 -13 -27z"/>
<path d="M2233 730 c0 -41 2 -58 4 -37 2 20 2 54 0 75 -2 20 -4 3 -4 -38z"/>
<path d="M2762 770 c0 -19 2 -27 5 -17 2 9 2 25 0 35 -3 9 -5 1 -5 -18z"/>
<path d="M1802 750 c0 -19 2 -27 5 -17 2 9 2 25 0 35 -3 9 -5 1 -5 -18z"/>
<path d="M2082 695 c0 -16 2 -22 5 -12 2 9 2 23 0 30 -3 6 -5 -1 -5 -18z"/>
</g>
</svg>
